<?xml version="1.0" encoding="UTF-8" standalone="no"?>
<svg
   xmlns:dc="http://purl.org/dc/elements/1.1/"
   xmlns:cc="http://creativecommons.org/ns#"
   xmlns:rdf="http://www.w3.org/1999/02/22-rdf-syntax-ns#"
   xmlns:svg="http://www.w3.org/2000/svg"
   xmlns="http://www.w3.org/2000/svg"
   xmlns:sodipodi="http://sodipodi.sourceforge.net/DTD/sodipodi-0.dtd"
   xmlns:inkscape="http://www.inkscape.org/namespaces/inkscape"
   width="10.4pt"
   height="7.4pt"
   viewBox="0 0 10.4 7.4"
   version="1.1"
   id="svg3804"
   sodipodi:docname="field.svg"
   inkscape:version="0.92.3 (2405546, 2018-03-11)">
  <metadata
     id="metadata3810">
    <rdf:RDF>
      <cc:Work
         rdf:about="">
        <dc:format>image/svg+xml</dc:format>
        <dc:type
           rdf:resource="http://purl.org/dc/dcmitype/StillImage" />
      </cc:Work>
    </rdf:RDF>
  </metadata>
  <defs
     id="defs3808" />
  <sodipodi:namedview
     pagecolor="#ffffff"
     bordercolor="#666666"
     borderopacity="1"
     objecttolerance="10"
     gridtolerance="10"
     guidetolerance="10"
     inkscape:pageopacity="0"
     inkscape:pageshadow="2"
     inkscape:window-width="2688"
     inkscape:window-height="1652"
     id="namedview3806"
     showgrid="false"
     inkscape:zoom="145.23648"
     inkscape:cx="5.7834842"
     inkscape:cy="4.9333334"
     inkscape:window-x="0"
     inkscape:window-y="0"
     inkscape:window-maximized="1"
     inkscape:current-layer="surface1" />
  <g
     id="surface1">
    <rect
       x="0"
       y="0"
       width="10.4"
       height="7.4"
       style="fill:#015e00;fill-opacity:1;stroke:none"
       id="rect3799" />
    <path
       style="fill:none;stroke-width:0.05;stroke-linecap:butt;stroke-linejoin:miter;stroke:rgb(100%,100%,100%);stroke-opacity:1;stroke-miterlimit:10;"
       d="M -4.500781 -3.000781 L -4.500781 2.999219 L 4.499219 2.999219 L 4.499219 -3.000781 Z M -0.00078125 -3.000781 L -0.00078125 2.999219 M -4.500781 -2.000781 L -2.848438 -2.000781 L -2.848438 1.999219 L -4.500781 1.999219 M 4.499219 -2.000781 L 2.850781 -2.000781 L 2.850781 1.999219 L 4.499219 1.999219 M -4.500781 -1.098438 L -3.899219 -1.098438 L -3.899219 1.100781 L -4.500781 1.100781 M 4.499219 -1.098438 L 3.901562 -1.098438 L 3.901562 1.100781 L 4.499219 1.100781 M 0.749219 -0.00078125 C 0.749219 0.999219 -0.750781 0.999219 -0.750781 -0.00078125 C -0.750781 -1.000781 0.749219 -1.000781 0.749219 -0.00078125 M -0.0515625 -0.00078125 L 0.05 -0.00078125 M 3.151562 -0.00078125 L 3.249219 -0.00078125 M 3.198437 -0.0515625 L 3.198437 0.05 M -3.250781 -0.00078125 L -3.149219 -0.00078125 M -3.2 -0.0515625 L -3.2 0.05 "
       transform="matrix(1,0,0,1,5.2,3.7)"
       id="path3801" />
  </g>
</svg>
